<svg height="20pt" viewBox="0 0 512 512" width="20pt" xmlns="http://www.w3.org/2000/svg"><path d="m483.234375 28.71875c-38.296875-38.292969-100.601563-38.292969-138.894531 0l-78.929688 78.925781c10.492188 5.765625 20.226563 13.042969 28.910156 21.730469l88.261719 88.257812c8.6875 8.691407 15.964844 18.417969 21.734375 28.898438l78.917969-78.914062c18.550781-18.550782 28.765625-43.214844 28.765625-69.449219s-10.214844-50.898438-28.765625-69.449219zm-58.839844 80.058594c-2.789062 2.789062-6.660156 4.390625-10.609375 4.390625-3.949218 0-7.808594-1.601563-10.597656-4.390625-2.800781-2.800782-4.402344-6.660156-4.402344-10.609375s1.601563-7.808594 4.402344-10.609375c2.789062-2.789063 6.648438-4.390625 10.597656-4.390625 3.953125 0 7.8125 1.601562 10.609375 4.390625 2.792969 2.800781 4.390625 6.660156 4.390625 10.609375s-1.597656 7.808593-4.390625 10.609375zm0 0"/><path d="m16.53125 268.265625c-10.660156 10.660156-16.53125 24.875-16.53125 40.027344 0 15.15625 5.871094 29.371093 16.53125 40.027343l28.621094 28.621094 57.675781-57.679687c5.859375-5.855469 15.355469-5.859375 21.214844 0 5.855469 5.859375 5.855469 15.355469 0 21.214843l-57.679688 57.679688 47.4375 47.433594 69.445313-69.449219c5.855468-5.855469 15.355468-5.855469 21.210937 0 5.859375 5.859375 5.859375 15.355469 0 21.214844l-69.445312 69.445312 28.625 28.621094c10.65625 10.660156 24.871093 16.53125 40.023437 16.53125s29.367188-5.871094 40.027344-16.53125l107.074219-107.074219-227.15625-227.15625zm0 0"/><path d="m273.109375 150.585938c-18.484375-18.484376-43.152344-28.664063-69.449219-28.664063-21.203125 0-41.339844 6.617187-58.03125 18.871094l225.539063 225.53125c28.152343-38.398438 24.886719-92.789063-9.800781-127.476563zm0 0"/></svg>