<svg xmlns="http://www.w3.org/2000/svg" height="20pt" version="1.1" viewBox="-10 0 136 136.17799" width="20pt">
<g id="surface1">
<path d="M 84.414062 48.988281 L 66.429688 31.007812 L 18.371094 79.070312 C 13.378906 84.066406 6.898438 98.601562 11.863281 103.558594 C 16.832031 108.511719 31.394531 102.007812 36.363281 97.054688 Z M 84.414062 48.988281 "  />
<path d="M 111.695312 3.722656 C 106.730469 -1.238281 98.683594 -1.242188 93.722656 3.722656 C 93.714844 3.722656 93.714844 3.722656 93.714844 3.722656 L 75.425781 22.019531 L 67.929688 14.523438 C 66.550781 13.148438 64.316406 13.148438 62.9375 14.523438 C 61.554688 15.90625 61.554688 18.140625 62.9375 19.519531 L 95.878906 52.398438 C 97.253906 53.78125 99.488281 53.78125 100.871094 52.398438 C 102.25 51.019531 102.25 48.78125 100.871094 47.402344 L 93.378906 39.910156 L 111.695312 21.707031 C 116.664062 16.746094 116.664062 8.695312 111.699219 3.730469 C 111.699219 3.730469 111.699219 3.730469 111.695312 3.722656 Z M 111.695312 3.722656 "  />
<path d="M 0.0898438 126.984375 C 0.0898438 132.058594 4.207031 136.179688 9.289062 136.179688 C 14.367188 136.179688 18.484375 132.058594 18.484375 126.984375 C 18.484375 119.953125 9.292969 107.902344 9.292969 107.902344 C 9.292969 107.902344 0.0898438 119.027344 0.0898438 126.984375 Z M 11.265625 124.261719 C 11.265625 123.226562 12.105469 122.386719 13.140625 122.386719 C 14.171875 122.386719 15.011719 123.226562 15.011719 124.261719 C 15.003906 128.664062 11.433594 132.230469 7.035156 132.238281 C 6 132.238281 5.160156 131.398438 5.160156 130.367188 C 5.160156 129.332031 6 128.492188 7.035156 128.492188 C 9.371094 128.492188 11.265625 126.597656 11.265625 124.261719 Z M 11.265625 124.261719 "  />
</g>
</svg>